<?xml version="1.0" encoding="UTF-8" standalone="no"?>
<!-- Created with Inkscape (http://www.inkscape.org/) -->

<svg
   xmlns:dc="http://purl.org/dc/elements/1.1/"
   xmlns:cc="http://creativecommons.org/ns#"
   xmlns:rdf="http://www.w3.org/1999/02/22-rdf-syntax-ns#"
   xmlns:svg="http://www.w3.org/2000/svg"
   xmlns="http://www.w3.org/2000/svg"
   xmlns:sodipodi="http://sodipodi.sourceforge.net/DTD/sodipodi-0.dtd"
   xmlns:inkscape="http://www.inkscape.org/namespaces/inkscape"
   width="210mm"
   height="297mm"
   viewBox="0 0 744.09448819 1052.3622047"
   id="svg93217"
   version="1.1"
   inkscape:version="0.91 r13725"
   sodipodi:docname="flicker.svg">
  <defs
     id="defs93219" />
  <sodipodi:namedview
     id="base"
     pagecolor="#ffffff"
     bordercolor="#666666"
     borderopacity="1.0"
     inkscape:pageopacity="0.0"
     inkscape:pageshadow="2"
     inkscape:zoom="0.7"
     inkscape:cx="196.74122"
     inkscape:cy="25.156626"
     inkscape:document-units="px"
     inkscape:current-layer="layer1"
     showgrid="false"
     inkscape:window-width="3741"
     inkscape:window-height="2121"
     inkscape:window-x="99"
     inkscape:window-y="39"
     inkscape:window-maximized="1" />
  <metadata
     id="metadata93222">
    <rdf:RDF>
      <cc:Work
         rdf:about="">
        <dc:format>image/svg+xml</dc:format>
        <dc:type
           rdf:resource="http://purl.org/dc/dcmitype/StillImage" />
        <dc:title></dc:title>
      </cc:Work>
    </rdf:RDF>
  </metadata>
  <g
     inkscape:label="Layer 1"
     inkscape:groupmode="layer"
     id="layer1">
    <path
       style="fill:#000000"
       d="m -173.20728,1205.7623 c -4.74225,-14.133 40.87248,-95.1731 8.04046,-50.5165 -17.44209,31.0794 -51.21276,55.1281 -26.38556,6.5456 18.40094,-38.5013 26.76217,-80.126 41.40715,-119.0929 39.1374,-67.98223 81.294726,-134.70583 104.999996,-209.95273 7.07858,-23.0313 26.89919,-49.29034 24.57942,-70.72178 -29.06105,11.63102 -86.859006,65.20843 -103.356826,42.18158 14.24455,-19.75025 88.542886,-75.90769 28.152406,-38.9078 -28.837266,20.99154 -108.874646,58.80448 -55.624996,-2.96405 30.20383,-43.93143 74.089526,-77.00476 109.064316,-117.03399 -14.68842,-46.40276 53.01768,-83.69685 78.48459,-118.39666 C 110.83059,458.95135 186.25958,391.24146 266.69702,330.2473 c 74.0146,-60.14475 168.3049,-85.85629 245.8462,-140.00152 49.5233,-55.13349 55.713,-142.732363 124.8171,-182.7308127 43.1852,-34.1793203 102.49921,-37.0638303 151.2444,-19.2287403 58.47545,51.581204 185.2658,11.70270646 241.82918,58.19763 -86.67159,11.046879 -97.366,15.17691 -148.8906,28.97093 -57.5322,10.1955 -64.06938,71.172403 -99.81358,112.846943 -45.8772,68.1577 -22.517,158.45246 -61.2433,230.21307 -48.988,110.10447 -130.1309,206.84086 -232.3682,271.3888 -74.5708,24.98242 27.22204,14.95123 25.21454,59.59337 27.1115,36.6472 -4.5933,74.32992 0.8549,34.51138 -3.28328,-35.08197 -79.62878,-82.25871 -67.18609,-57.78866 8.57208,16.85802 29.90342,36.98101 32.21193,49.03385 3.33475,17.41083 -8.62626,24.85108 -8.09303,17.78659 1.72349,-22.83387 -9.5395,-18.82904 -21.45681,-37.41797 -13.54614,-21.12963 -20.85348,-31.81532 -22.95894,-32.08392 -40.3711,8.91136 -67.777,39.21162 -113.8249,35.93661 12.059,29.5952 100.67116,7.72341 107.50536,62.55895 33.5552,23.8555 -20.57825,84.47314 -4.61305,28.27404 -17.8109,-17.582 -8.55351,-43.31473 -51.25101,-47.32424 -29.9452,11.36717 29.10057,57.13312 -13.39633,88.83252 -26.3868,7.8192 12.75406,-13.59488 -9.83804,-25.93508 8.6072,-45.7891 -6.30472,-83.00669 -64.86242,-69.86211 -23.6037,-14.8793 -70.55054,41.64452 -70.24212,11.40923 101.7057,-71.22952 0.64871,-30.61566 -49.85846,26.01611 -42.90626,37.0771 -95.243664,61.6357 -119.129064,116.2463 -12.35005,27.4108 -34.9327897,48.366 -49.44622,73.17573 -28.30365,28.6804 -45.92388,59.2865 -68.50623,91.1688 -26.172866,23.7676 -57.366606,45.5598 -83.188266,84.1274 -2.21491,1.344 -4.50231,11.5602 -9.26125,7.5998 z"
       id="path182905"
       inkscape:connector-curvature="0"
       sodipodi:nodetypes="ccccccccccccccccccccccssssccccccccccccccc"
       inkscape:export-xdpi="200"
       inkscape:export-ydpi="200" />
    <path
       style="fill:#db1111;fill-opacity:1;fill-rule:evenodd;stroke:#000000;stroke-width:0.79366827px;stroke-linecap:butt;stroke-linejoin:miter;stroke-opacity:1"
       d="m 791.65726,82.202894 c 9.08575,6.680783 9.04349,8.133133 8.6209,22.181266 0.0396,2.71968 -15.8514,19.17491 -33.42762,43.58556 -10.58147,14.69602 -23.54864,53.74373 -30.46847,51.47701 -27.29952,-6.23189 -25.18656,-19.75189 -51.47184,-48.16504 62.96639,-55.347536 99.62632,-70.61036 106.74703,-69.078796 z"
       id="path182908"
       inkscape:connector-curvature="0"
       sodipodi:nodetypes="ccsccc"
       inkscape:export-xdpi="200"
       inkscape:export-ydpi="200" />
    <path
       style="color:#000000;clip-rule:nonzero;display:inline;overflow:visible;visibility:visible;opacity:1;isolation:auto;mix-blend-mode:normal;color-interpolation:sRGB;color-interpolation-filters:linearRGB;solid-color:#000000;solid-opacity:1;fill:#f9b9b9;fill-opacity:1;fill-rule:nonzero;stroke:#000000;stroke-width:9.10000038;stroke-linecap:round;stroke-linejoin:round;stroke-miterlimit:4;stroke-dasharray:none;stroke-dashoffset:0;stroke-opacity:1;color-rendering:auto;image-rendering:auto;shape-rendering:auto;text-rendering:auto;enable-background:accumulate"
       d="m 338.27189,833.29595 c 31.78179,41.59351 24.38143,95.62192 -16.52907,120.67572 -40.91043,25.05392 -99.83913,11.64582 -131.62081,-29.9478 -31.7817,-41.59353 -41.61597,-122.52161 -0.7055,-147.57547 40.91045,-25.05381 117.07366,15.25398 148.85538,56.84755 z"
       id="path182931-3"
       inkscape:connector-curvature="0"
       sodipodi:nodetypes="sssss"
       inkscape:transform-center-x="-61.834235"
       inkscape:transform-center-y="20.843336"
       inkscape:export-xdpi="200"
       inkscape:export-ydpi="200" />
    <path
       style="color:#000000;clip-rule:nonzero;display:inline;overflow:visible;visibility:visible;opacity:1;isolation:auto;mix-blend-mode:normal;color-interpolation:sRGB;color-interpolation-filters:linearRGB;solid-color:#000000;solid-opacity:1;fill:#f9b9b9;fill-opacity:1;fill-rule:nonzero;stroke:#000000;stroke-width:9.10000038;stroke-linecap:round;stroke-linejoin:round;stroke-miterlimit:4;stroke-dasharray:none;stroke-dashoffset:0;stroke-opacity:1;color-rendering:auto;image-rendering:auto;shape-rendering:auto;text-rendering:auto;enable-background:accumulate"
       d="m 482.09096,890.46911 c -10.8482,51.20952 -56.65765,80.79551 -102.31811,66.08211 -45.66052,-14.71319 -73.88136,-68.15436 -63.03301,-119.3639 10.84827,-51.20951 65.83624,-111.3958 111.49673,-96.68245 45.66044,14.71336 64.70267,98.75469 53.85439,149.96424 z"
       id="path182931-3-6"
       inkscape:connector-curvature="0"
       sodipodi:nodetypes="sssss"
       inkscape:transform-center-x="-19.063515"
       inkscape:transform-center-y="56.164245"
       inkscape:export-xdpi="200"
       inkscape:export-ydpi="200" />
    <path
       style="color:#000000;clip-rule:nonzero;display:inline;overflow:visible;visibility:visible;opacity:1;isolation:auto;mix-blend-mode:normal;color-interpolation:sRGB;color-interpolation-filters:linearRGB;solid-color:#000000;solid-opacity:1;fill:#f9b9b9;fill-opacity:1;fill-rule:nonzero;stroke:#000000;stroke-width:9.10000038;stroke-linecap:round;stroke-linejoin:round;stroke-miterlimit:4;stroke-dasharray:none;stroke-dashoffset:0;stroke-opacity:1;color-rendering:auto;image-rendering:auto;shape-rendering:auto;text-rendering:auto;enable-background:accumulate"
       d="m 608.71098,939.99123 c -39.41025,34.45192 -93.80875,30.62562 -121.5023,-8.54619 -27.69371,-39.17167 -18.19532,-98.85549 21.21505,-133.30729 39.41029,-34.45182 119.51506,-49.5942 147.20866,-10.42243 27.69355,39.17175 -7.51109,117.82406 -46.92141,152.27591 z"
       id="path182931-3-6-7"
       inkscape:connector-curvature="0"
       sodipodi:nodetypes="sssss"
       inkscape:transform-center-x="17.575593"
       inkscape:transform-center-y="62.750493"
       inkscape:export-xdpi="200"
       inkscape:export-ydpi="200" />
  </g>
</svg>
