<?xml version="1.0" encoding="UTF-8" standalone="no"?>
<svg
   xmlns:dc="http://purl.org/dc/elements/1.1/"
   xmlns:cc="http://creativecommons.org/ns#"
   xmlns:rdf="http://www.w3.org/1999/02/22-rdf-syntax-ns#"
   xmlns:svg="http://www.w3.org/2000/svg"
   xmlns="http://www.w3.org/2000/svg"
   xmlns:sodipodi="http://sodipodi.sourceforge.net/DTD/sodipodi-0.dtd"
   xmlns:inkscape="http://www.inkscape.org/namespaces/inkscape"
   version="1.0"
   width="1280.000000pt"
   height="795.000000pt"
   viewBox="0 0 1280.000000 795.000000"
   preserveAspectRatio="xMidYMid meet"
   id="svg2"
   inkscape:version="0.91 r13725"
   sodipodi:docname="wtsp.svg">
  <metadata
     id="metadata12">
    <rdf:RDF>
      <cc:Work
         rdf:about="">
        <dc:format>image/svg+xml</dc:format>
        <dc:type
           rdf:resource="http://purl.org/dc/dcmitype/StillImage" />
        <dc:title></dc:title>
      </cc:Work>
    </rdf:RDF>
  </metadata>
  <defs
     id="defs10" />
  <sodipodi:namedview
     pagecolor="#ffffff"
     bordercolor="#666666"
     borderopacity="1"
     objecttolerance="10"
     gridtolerance="10"
     guidetolerance="10"
     inkscape:pageopacity="0"
     inkscape:pageshadow="2"
     inkscape:window-width="2978"
     inkscape:window-height="1715"
     id="namedview8"
     showgrid="false"
     inkscape:zoom="0.46375"
     inkscape:cx="-868.52704"
     inkscape:cy="1635.3322"
     inkscape:window-x="2019"
     inkscape:window-y="55"
     inkscape:window-maximized="0"
     inkscape:current-layer="g4" />
  <g
     transform="translate(0.000000,795.000000) scale(0.100000,-0.100000)"
     fill="#000000"
     stroke="none"
     id="g4">
    <path
       d="m 381.67475,8178.547 c -199.87828,9.0129 -690.14342,-0.8854 -1070.04768,-197.0661 457.27238,-330.9092 817.18099,-470.6912 1045.64838,-556.329 C 849.79508,7272.6607 560.16603,6211.6489 870.24636,5192.9421 1140.2407,4154.7876 2002.1475,3485.1975 2713.6256,3096.6139 c 238.0623,-126.95 544.3863,-234.8574 786.715,-277.4763 118.6046,-20.8561 122.8709,-22.6697 62.2887,-36.2715 -28.1579,-6.3475 -118.6045,-35.3646 -200.5184,-64.3817 l -148.469,-51.6868 -110.9252,-0.9068 c -104.0989,0 -115.1914,1.8136 -187.7194,29.0172 -264.5137,101.5599 -375.4388,85.2378 -417.2491,-59.8479 l -5.9729,-19.9493 30.7178,22.6697 c 59.7289,42.6189 108.3653,40.8053 217.5838,-6.3475 34.9841,-15.4154 93.0065,-37.1782 127.9906,-48.0596 73.3812,-23.5765 87.8868,-40.8054 32.4242,-40.8054 -58.0223,0 -259.3941,-26.2968 -345.5744,-45.3392 -157.8549,-34.4579 -253.4212,-77.9836 -325.0959,-147.8061 -41.8102,-41.7121 -56.3158,-68.0089 -64.8485,-117.8821 L 2159,2196.176 l 39.2504,32.6443 c 99.8326,80.7039 331.0688,145.0856 853.2701,236.671 159.5615,29.0171 292.6717,53.5003 296.938,56.2207 3.4131,1.8135 5.9729,-3.6272 5.9729,-13.6018 0,-26.2968 -57.1691,-112.4414 -157.0017,-237.5778 -161.268,-201.3063 -188.5727,-304.6799 -98.9793,-371.782 29.8644,-22.6696 40.1037,-19.9493 26.4514,7.2543 -31.571,62.5682 4.2663,129.6703 118.6045,219.4421 61.4355,48.0596 107.512,97.9328 184.3064,195.8656 133.9634,172.2892 165.5344,185.891 481.2443,203.1199 246.5951,12.695 347.2809,39.8986 416.3958,111.5346 30.7177,31.7375 40.957,37.1782 69.9682,37.1782 18.7719,-0.9068 43.5167,-8.1611 54.6092,-16.3221 29.8645,-19.9493 33.2776,-18.1357 28.158,11.7882 l -5.1197,25.39 57.1691,6.3475 c 70.8215,6.3475 334.4819,7.2543 334.4819,0 0,-9.0679 -116.898,-173.196 -179.1867,-249.366 -34.1308,-41.7121 -156.1484,-182.2639 -272.1932,-311.9342 -116.0447,-129.6703 -253.4212,-285.6373 -306.3239,-345.4852 -180.04,-208.5606 -279.8726,-275.6627 -409.5697,-275.6627 -32.4243,0 -111.7784,10.8814 -177.4802,24.4832 -156.1484,30.8307 -266.2202,33.551 -315.7099,5.4407 -42.6635,-24.4832 -78.5009,-63.475 -93.8597,-102.4668 l -11.9458,-29.0171 33.2775,31.7375 c 48.6364,47.1528 87.0336,52.5935 141.6429,19.9493 101.5391,-59.8479 136.5232,-77.0768 161.268,-77.9836 26.4514,-0.9068 26.4514,-0.9068 -10.2392,-19.0425 -52.0495,-24.4832 -127.9905,-39.8985 -296.0848,-57.1274 -79.3541,-8.1611 -173.2138,-20.8561 -207.3446,-28.1104 -125.4307,-24.4832 -209.9044,-85.2378 -240.6222,-172.2892 -9.3859,-27.2036 -17.0654,-51.6868 -17.0654,-53.5003 0,-2.7204 20.4785,11.7882 45.2234,31.7375 76.7943,62.5681 103.2456,68.0089 325.9491,68.9156 182.5998,0 202.225,1.8136 286.6988,23.5765 109.2186,29.0171 210.7577,61.6614 411.2762,129.6703 83.6205,28.1103 154.4419,48.9664 157.855,46.246 11.0925,-12.695 -17.9187,-122.416 -52.9028,-200.3995 -20.4785,-44.4325 -62.2887,-124.2296 -94.713,-176.82319 -75.0877,-123.32281 -135.6699,-245.73883 -152.7353,-307.40024 -7.6795,-27.20356 -11.9458,-50.77998 -10.2393,-52.59355 3.4131,-3.62714 126.284,146.89923 197.9587,242.11169 27.3046,37.1782 98.1261,140.55169 156.1484,228.50989 59.7289,92.4921 126.284,181.3571 153.5886,209.4674 84.4738,82.5175 195.3989,129.6703 370.3193,155.9671 183.453,27.2036 200.5185,34.4579 292.6716,114.255 33.2776,29.9239 71.6747,56.2207 86.1803,58.941 32.4243,7.2543 71.6747,-13.6018 120.3111,-63.475 34.1308,-33.551 36.6906,-35.3646 32.4243,-14.5085 -2.5599,12.695 -5.9729,37.1782 -8.5327,54.4071 -8.5327,52.5936 -49.4897,97.026 -105.8055,114.255 -70.8215,22.6696 -162.9746,11.7882 -368.6127,-41.7122 -180.04,-47.1528 -273.0465,-63.4749 -273.0465,-48.9664 0,4.534 5.9729,18.1357 13.6524,29.0172 6.8261,10.8814 18.7719,41.7121 25.5981,67.1021 52.0494,186.7978 295.2314,496.0116 626.3002,795.2507 160.4148,145.9925 267.9268,218.5353 413.836,280.1967 232.9428,98.8396 521.3481,245.7388 699.6815,357.2734 199.6652,124.2296 337.895,229.4167 585.3433,444.3249 154.4419,134.2042 283.2857,175.9163 715.0404,230.3234 322.5361,40.8054 378.8519,53.5004 610.0881,135.1111 271.3399,97.026 263.6605,96.1192 643.3657,60.7546 172.3605,-16.3222 434.3144,-39.8986 581.9302,-51.6868 349.8407,-29.9239 407.0098,-35.3646 716.7469,-73.4496 387.3846,-47.1528 468.4456,-56.2207 618.6206,-70.7293 206.492,-20.856 485.511,-35.3646 571.691,-29.9239 110.072,7.2543 183.453,38.9918 183.453,79.7971 0,23.5764 -44.37,58.0343 -90.446,70.7293 -66.555,18.1357 -69.969,20.8561 -41.811,28.1103 75.088,18.1357 91.3,63.475 45.224,126.0432 -8.533,12.695 -12.799,24.4832 -8.533,27.2036 14.506,9.9746 34.131,59.8478 40.104,102.4667 15.359,106.0939 -56.316,188.6114 -197.959,230.3235 -36.691,10.8814 -115.191,16.3221 -301.204,21.7628 -224.41,7.2543 -300.351,13.6018 -708.2145,63.475 -960.7822,116.0685 -1218.4697,139.645 -1593.0553,146.8992 -76.7943,1.8136 -139.083,4.534 -139.083,7.2543 0,6.3475 116.898,30.8307 397.6238,82.5175 253.4212,46.246 308.8838,58.0342 316.5632,66.1953 9.386,9.9747 -40.1037,67.1021 -84.4737,98.8396 -52.9028,37.1782 -128.8438,70.7293 -215.0241,97.0261 -94.713,27.2035 -198.8119,45.3392 -811.4598,141.4585 -256.8344,39.8985 -397.6239,68.9157 -532.4406,108.8142 -139.9363,41.7121 -216.7306,74.3564 -431.7547,183.1707 -268.7801,136.0178 -556.3321,252.9931 -930.0644,378.1294 -261.1006,87.0514 -430.0481,161.4078 -759.4104,330.9767 -385.6781,199.4928 -1073.0732,848.8849 -1430.5933,956.7924 -632.7696,368.8277 -729.5626,900.4618 -1517.0817,1483.8105 C 1304.8467,9473.9709 507.34263,8220.3268 381.67475,8178.547 Z"
       id="path6"
       inkscape:connector-curvature="0"
       sodipodi:nodetypes="ccccccccccccccccscccccccsccccccccccccscscscccccccccccsccccccccscccccccccccscccccccccccccscccccccccscsccccsccccc"
       inkscape:export-xdpi="200"
       inkscape:export-ydpi="200" />
    <path
       style="fill:#ffffff;fill-opacity:1;fill-rule:evenodd;stroke:#000000;stroke-width:72.80000305;stroke-linecap:butt;stroke-linejoin:miter;stroke-miterlimit:4;stroke-dasharray:none;stroke-opacity:1"
       d="M 436.08095,7398.1285 C 802.023,7236.5041 827.50748,7096.8798 1171.0146,6797.3736 814.78499,6657.6041 930.19852,6650.0022 723.169,6642.7414 Z"
       id="path93203"
       inkscape:connector-curvature="0"
       inkscape:transform-center-x="-12.24895"
       inkscape:transform-center-y="-2.6302171"
       sodipodi:nodetypes="cccc"
       inkscape:export-xdpi="200"
       inkscape:export-ydpi="200" />
    <path
       style="fill:#ffffff;fill-opacity:1;fill-rule:evenodd;stroke:#000000;stroke-width:72.80000305;stroke-linecap:butt;stroke-linejoin:miter;stroke-miterlimit:4;stroke-dasharray:none;stroke-opacity:1"
       d="M 388.57361,8184.4432 C 1212.2933,8139.879 2005.8243,8054.3444 2829.544,8009.7802 2681.4756,8178.693 2557.1271,8360.5438 2350.8378,8499.268 1803.1289,8505.0182 1330.675,8510.7685 782.96605,8516.5187 661.33931,8446.9953 494.95276,8295.135 388.57361,8184.4432 Z"
       id="path93205"
       inkscape:connector-curvature="0"
       sodipodi:nodetypes="ccccc"
       inkscape:export-xdpi="200"
       inkscape:export-ydpi="200" />
    <path
       style="fill:#ffd111;fill-opacity:1;fill-rule:evenodd;stroke:none;stroke-width:8px;stroke-linecap:butt;stroke-linejoin:miter;stroke-opacity:1"
       d="m 468.48518,8214.7278 c 53.34317,46.0018 264.02044,265.0494 320.05903,276.0108 56.03859,10.9614 414.71179,-14.0162 414.71179,-14.0162 l -119.5771,-300.8086 c 0,0 -668.5369,-7.1879 -615.19372,38.814 z"
       id="path93207"
       inkscape:connector-curvature="0"
       sodipodi:nodetypes="zzccz"
       inkscape:export-xdpi="200"
       inkscape:export-ydpi="200" />
  </g>
</svg>
